<svg xmlns="http://www.w3.org/2000/svg" viewBox="0 0 90 40" enable-background="new 0 0 90 40"><g fill="#7D7D7D"><path d="M8.2 32l-.6-.6c-.3-.2-.6-.4-.8-.5l-.9-.3c-.3-.1-.6-.1-.9-.1-.6 0-1.2.1-1.7.4-.5.2-1 .6-1.4 1-.4.4-.7.9-.9 1.4-.2.5-.3 1.1-.3 1.7 0 .6.1 1.1.3 1.6.2.5.5.9.9 1.3s.9.7 1.4.9c.5.2 1.1.4 1.6.4.3 0 .6 0 .9-.1l.9-.3c.3-.1.6-.3.8-.5l.7-.7v.8c-.5.4-.9.7-1.5.9-.5.2-1.1.3-1.7.3-.7 0-1.3-.1-1.9-.4-.6-.3-1.1-.6-1.6-1s-.8-1-1.1-1.5c-.3-.6-.4-1.2-.4-1.9s.1-1.3.4-1.9c.3-.6.6-1.1 1.1-1.5.5-.4 1-.8 1.6-1 .6-.4 1.3-.5 1.9-.5.6 0 1.1.1 1.7.3.5.2 1 .5 1.5.9v.9zM15.6 29.9c.7 0 1.3.1 1.9.4.6.3 1.1.6 1.6 1 .4.4.8 1 1.1 1.5.3.6.4 1.2.4 1.9s-.1 1.3-.4 1.9c-.3.6-.6 1.1-1.1 1.5-.4.4-1 .8-1.6 1-.6.3-1.2.4-1.9.4s-1.3-.1-1.9-.4c-.6-.3-1.1-.6-1.6-1-.4-.4-.8-1-1.1-1.5-.3-.6-.4-1.2-.4-1.9s.1-1.3.4-1.9c.3-.6.6-1.1 1.1-1.5.4-.4 1-.8 1.6-1 .6-.3 1.2-.4 1.9-.4zm0 .6c-.6 0-1.2.1-1.7.3-.5.2-1 .5-1.4.9-.4.4-.7.8-.9 1.4-.2.5-.3 1.1-.3 1.7 0 .6.1 1.1.3 1.7.2.5.5 1 .9 1.4.4.4.9.7 1.4.9.5.2 1.1.3 1.7.3.6 0 1.1-.1 1.7-.3.5-.2 1-.5 1.4-.9.4-.4.7-.8.9-1.4.2-.5.3-1.1.3-1.6 0-.6-.1-1.1-.3-1.7-.2-.5-.5-1-.9-1.4-.4-.4-.8-.7-1.4-.9-.6-.3-1.1-.4-1.7-.4zM31.8 39.8l-8-8.4v8.1h-.6v-9.6l8 8.4V30h.6v9.8zM39.5 31.6c-.2-.3-.5-.6-.8-.8-.3-.2-.7-.3-1.1-.3-.3 0-.5 0-.7.1-.2.1-.4.2-.6.4-.2.2-.3.4-.4.6-.1.2-.1.5-.1.7s.1.5.2.6c.1.2.2.3.4.5.2.1.4.3.6.4l.6.3 1.8.9c.4.2.6.5.8.8.2.3.3.7.3 1.1 0 .4-.1.8-.2 1.1-.2.3-.4.6-.7.9-.3.2-.6.4-1 .6-.4.1-.7.2-1.1.2-.7 0-1.2-.2-1.7-.6-.5-.4-.8-.9-1.1-1.5l.5-.2c.2.5.5.9.9 1.2.4.3.9.5 1.4.5.3 0 .6-.1.9-.2.3-.1.5-.3.8-.5.2-.2.4-.4.5-.7.1-.3.2-.6.2-.9 0-.3-.1-.5-.2-.7-.1-.2-.3-.4-.5-.5-.2-.1-.4-.3-.6-.4l-.6-.3-1.8-.9c-.3-.2-.6-.4-.7-.7-.2-.3-.3-.6-.3-1s.1-.7.2-1c.1-.3.3-.5.5-.8.2-.2.5-.4.8-.5.3-.1.6-.2 1-.2.5 0 .9.1 1.3.4.4.2.7.6 1 1l-.5.4zM49 30h.6V36.6c0 .2 0 .4-.1.7 0 .2-.1.4-.2.6-.1.2-.2.4-.4.6-.3.4-.7.6-1.2.8-.5.2-.9.3-1.4.3-.5 0-1-.1-1.4-.3-.5-.2-.9-.5-1.2-.8-.2-.2-.3-.4-.4-.6-.1-.2-.2-.4-.2-.6 0-.2-.1-.4-.1-.7V30h.6v6.3c0 .2 0 .4.1.6 0 .2.1.4.1.6.1.2.2.4.3.5.1.2.3.3.4.4.2.1.3.2.5.3.2.1.4.1.6.2.2 0 .4.1.6.1.2 0 .4 0 .6-.1.2 0 .4-.1.6-.2.2-.1.4-.2.5-.3.2-.1.3-.2.4-.4.1-.2.2-.3.3-.5.1-.2.1-.4.1-.6 0-.2.1-.4.1-.6V30zM53.5 38.9h2.4v.6h-3V30h.6v8.9zM60.4 39.5h-.6v-8.9h-2.5V30h5.5v.6h-2.5v8.9zM65.8 39.5h-.6V30h.6v9.5zM77.7 39.8l-8-8.4v8.1h-.6v-9.6l8 8.4V30h.6v9.8zM89.9 34.9v.9c0 .3-.1.5-.1.8-.1.3-.2.5-.3.8-.1.2-.3.5-.5.7-.5.5-1 .9-1.6 1.1-.6.3-1.3.4-2 .4s-1.3-.1-1.9-.4c-.6-.3-1.1-.6-1.6-1-.4-.4-.8-1-1.1-1.5-.3-.6-.4-1.2-.4-1.9s.1-1.3.4-1.9c.3-.6.6-1.1 1.1-1.6.4-.4 1-.8 1.6-1 .6-.3 1.2-.4 1.9-.4.9 0 1.6.2 2.3.6.7.4 1.3.9 1.8 1.6l-.5.4c-.4-.6-1-1.1-1.6-1.5-.6-.4-1.3-.5-2.1-.5-.6 0-1.1.1-1.7.4-.5.2-1 .5-1.4.9-.4.4-.7.8-.9 1.4-.2.5-.3 1.1-.3 1.6 0 .6.1 1.1.3 1.7.2.5.5 1 .9 1.4.4.4.8.7 1.4.9.5.2 1.1.3 1.7.3.5 0 1-.1 1.5-.3.5-.2.9-.4 1.3-.8s.7-.7.9-1.1c.2-.4.3-.9.3-1.4h-3.4v-.6h4z"/></g><g fill="#F8F8F8"><path d="M29.7 1.2H33c1.3 0 2.5.1 3.8.3 1.2.2 2.3.5 3.2 1 .9.5 1.7 1.2 2.2 2.1.6.9.8 2 .8 3.4 0 .5-.1.9-.2 1.4-.1.5-.3.9-.6 1.4l-.9 1.2c-.4.3-.8.6-1.2.8v.1c.8.1 1.5.4 2.2.8.7.4 1.3.9 1.7 1.5.5.6.9 1.2 1.1 1.9.3.7.4 1.4.4 2.1 0 1.3-.3 2.3-.8 3.2-.5.9-1.3 1.6-2.1 2.2-.9.6-1.9 1-3.1 1.2-1.1.3-2.3.4-3.5.4h-6.4v-25zm3.4 11h.9c.8 0 1.6 0 2.3-.1.7-.1 1.3-.3 1.9-.6.5-.3 1-.7 1.3-1.3.3-.5.5-1.3.5-2.2 0-.9-.2-1.6-.5-2.1s-.7-.9-1.3-1.2c-.5-.3-1.2-.5-1.9-.6C35.6 4 34.8 4 34 4h-.9v8.2zm0 11.2h2.6c.8 0 1.6-.1 2.3-.2.8-.1 1.5-.3 2.1-.7.6-.3 1.1-.8 1.5-1.4.4-.6.6-1.3.6-2.2 0-.9-.2-1.6-.7-2.2-.4-.6-1-1-1.7-1.3-.7-.3-1.5-.5-2.3-.6-.8-.1-1.6-.2-2.4-.2H33v8.8zM49.1 0l20.6 19.6V1.2h3.4v26L52.5 7.5v18.6h-3.4V0zM81.5 23.3h8.3v2.8H78v-25h3.4v22.2z"/></g><g><path fill="#5591C7" d="M0 16.2h24.9v10.1H0z"/><path fill="#3070AA" d="M6.3 11.4H25v14.9H6.3z"/><path fill="#205F99" d="M12.6 6.1H25v20.1H12.6z"/><path fill="#02498B" d="M18.9 1.1h6.3v25.2h-6.3z"/></g></svg>